<?xml version="1.0" encoding="UTF-8"?>
<!DOCTYPE svg PUBLIC "-//W3C//DTD SVG 1.1//EN" "http://www.w3.org/Graphics/SVG/1.1/DTD/svg11.dtd">
<!-- Creator: CorelDRAW -->
<svg xmlns="http://www.w3.org/2000/svg" xml:space="preserve" width="56.5299mm" height="10.8864mm" style="shape-rendering:geometricPrecision; text-rendering:geometricPrecision; image-rendering:optimizeQuality; fill-rule:evenodd; clip-rule:evenodd"
viewBox="0 0 22.5081 4.33456"
 xmlns:xlink="http://www.w3.org/1999/xlink">
 <defs>
  <style type="text/css">
   <![CDATA[
    .fil0 {fill:none}
    .fil2 {fill:#ecf0f1}
    .fil1 {fill:#3498db}
    .fil3 {fill:#ecf0f1;fill-rule:nonzero}
    .fil4 {fill:#3498db;fill-rule:nonzero}
   ]]>
  </style>
 </defs>
 <g id="Vrstva_x0020_1">
  <metadata id="CorelCorpID_0Corel-Layer"/>
  <rect class="fil0" width="22.5081" height="4.33456"/>
  <path class="fil1" d="M1.25907 0.166352l-0.0457887 3.33744c-0.365115,0.0695192 -0.673214,0.227112 -0.942332,0.444987 0.499575,-0.189287 1.08428,-0.344013 2.30441,-0.0487351 1.01165,0.244791 1.19879,0.0969925 1.92464,0.0667321 -1.51712,-0.00979481 -2.03792,-0.564436 -3.01186,-0.508812l-0.229063 -3.29161z"/>
  <path class="fil2" d="M0.365832 4.10255c0.59171,-0.458684 1.26879,-0.257213 2.20953,-0.0582512 -0.29699,0.064144 -0.708451,0.068484 -1.04796,-0.0137366 -0.417235,-0.101014 -0.816911,-0.0992222 -1.16156,0.0719879z"/>
  <path class="fil2" d="M1.54045 1.92014c1.74439,-0.821012 3.08509,0.0902635 2.18245,1.04705 0.130478,-0.422531 -1.13946,0.215088 -1.98731,0.489502 0.976296,-0.523584 1.00735,-1.36212 -0.19514,-1.53655z"/>
  <path class="fil2" d="M1.31159 0.921031c0.965824,-0.597802 1.84672,-0.144215 1.58473,0.423765 -0.0661747,-0.29914 -0.735367,0.202386 -1.08257,0.350622 0.228984,-0.219189 0.335014,-0.652947 -0.502163,-0.774387z"/>
  <path class="fil3" d="M5.46558 1.95836l0 0.666644 -0.40748 0 0 -1.91226 0.658203 0c0.475725,0 0.713389,0.201431 0.713389,0.60469 0,0.195936 -0.0716295,0.353131 -0.215327,0.471106 -0.143697,0.117976 -0.323189,0.174873 -0.538953,0.169816l-0.209832 0zm0 -0.929591l0 0.617352 0.176545 0c0.239774,0 0.359462,-0.10408 0.359462,-0.312239 0,-0.203541 -0.118852,-0.305112 -0.355679,-0.305112l-0.180328 0zm1.17904 -0.209832c0,-0.061118 0.0215008,-0.110411 0.0649006,-0.148754 0.0429618,-0.0383431 0.098187,-0.0572956 0.166034,-0.0572956 0.0690813,0 0.124705,0.0193507 0.167706,0.0585698 0.0429618,0.0391792 0.0640246,0.0880736 0.0640246,0.14748 0,0.0598439 -0.021461,0.109973 -0.0652987,0.149988 -0.0433998,0.0400552 -0.0990231,0.0598439 -0.166432,0.0598439 -0.0670108,0 -0.122236,-0.0202267 -0.165636,-0.06068 -0.0437979,-0.0400154 -0.0652987,-0.0901839 -0.0652987,-0.149152zm0.0295039 1.80607l0 -1.3653 0.397367 0 0 1.3653 -0.397367 0zm1.62443 -1.00377c-0.0484564,-0.0277918 -0.107464,-0.0416877 -0.176545,-0.0416877 -0.0906219,0 -0.162251,0.0345605 -0.215327,0.103642 -0.0531149,0.0691211 -0.0796724,0.163924 -0.0796724,0.284886l0 0.656929 -0.398641 0 0 -1.3653 0.398641 0 0 0.256616 0.00505667 0c0.0657367,-0.186659 0.185424,-0.280227 0.359024,-0.280227 0.0472221,0 0.083017,0.00549465 0.107464,0.0160062l0 0.369137z"/>
  <path class="fil4" d="M9.44005 2.01283c0.069997,0 0.123391,-0.0170414 0.159703,-0.0511639 0.0363125,-0.0341624 0.0546678,-0.0844504 0.0546678,-0.151382 0,-0.0656173 -0.0183553,-0.115945 -0.0546678,-0.150506 -0.0363125,-0.0345605 -0.0897061,-0.0516417 -0.159703,-0.0516417l-0.244552 0 0 0.404693 0.244552 0zm0.0153293 0.836899c0.0901043,0 0.157075,-0.0205452 0.202108,-0.0625514 0.0446341,-0.0420062 0.0673692,-0.104996 0.0673692,-0.189844 0,-0.0826984 -0.0227351,-0.144812 -0.0673692,-0.18638 -0.0450322,-0.0415682 -0.112003,-0.0621134 -0.202108,-0.0621134l-0.259881 0 0 0.500889 0.259881 0zm0.412975 -0.688145c0.0958378,0.0306187 0.169777,0.0874764 0.221817,0.170613 0.0520797,0.0826984 0.0778807,0.184628 0.0778807,0.304913 0,0.184628 -0.0559817,0.321994 -0.168423,0.412576 -0.112441,0.0905423 -0.283054,0.136052 -0.511878,0.136052l-0.737159 0 0 -1.91357 0.666724 0c0.238858,0 0.412099,0.0402543 0.519722,0.120325 0.107185,0.0804687 0.160579,0.209115 0.160579,0.38586 0,0.0931701 -0.0192711,0.172365 -0.0581716,0.237982 -0.0389403,0.0651793 -0.0958378,0.113755 -0.171091,0.14525z"/>
  <path id="1" class="fil4" d="M11.1113 2.53956c-0.0861625,0 -0.150944,0.0166432 -0.194662,0.0490139 -0.0437581,0.0323706 -0.0652191,0.0800706 -0.0652191,0.143498 0,0.0581716 0.0175192,0.103682 0.0525177,0.13649 0.0349985,0.0328086 0.0835744,0.0494518 0.146126,0.0494518 0.0774427,0 0.14306,-0.0310965 0.195976,-0.0932099 0.0529557,-0.0616754 0.0796326,-0.139556 0.0796326,-0.232288l0 -0.0529557 -0.214371 0zm0.630849 -0.172803l0 0.818981 -0.416478 0 0 -0.212619c-0.0555437,0.0870782 -0.118135,0.150506 -0.187256,0.190322 -0.0691211,0.0398163 -0.153532,0.0594855 -0.252435,0.0594855 -0.1343,0 -0.2428,-0.0433201 -0.326334,-0.129921 -0.0831364,-0.0870782 -0.125143,-0.199519 -0.125143,-0.337762 0,-0.168423 0.0525177,-0.291814 0.156637,-0.37053 0.10412,-0.0787566 0.267725,-0.118135 0.490855,-0.118135l0.243676 0 0 -0.0358745c0,-0.0726249 -0.0262389,-0.125581 -0.0778807,-0.159265 -0.0516019,-0.0341226 -0.131672,-0.050726 -0.240172,-0.050726 -0.0888302,0 -0.171489,0.00963554 -0.24718,0.0293048 -0.0761288,0.0196692 -0.147002,0.0494518 -0.213057,0.0883922l0 -0.349587c0.0887903,-0.024049 0.178058,-0.0424044 0.267287,-0.0546678 0.0892681,-0.0122634 0.178496,-0.0183951 0.267327,-0.0183951 0.233164,0 0.401627,0.0507658 0.504871,0.153133 0.103682,0.10193 0.155284,0.268203 0.155284,0.497863z"/>
  <path id="12" class="fil4" d="M13.4238 2.31165l0 0.874087 -0.415204 0 0 -0.142184 0 -0.52673c0,-0.124267 -0.00258806,-0.209553 -0.00784381,-0.256377 -0.00525575,-0.0472619 -0.0135774,-0.0818225 -0.0258408,-0.10412 -0.0161654,-0.0297428 -0.0380246,-0.0529159 -0.0656173,-0.0695591 -0.0279909,-0.0166432 -0.0594855,-0.024925 -0.0944841,-0.024925 -0.0862023,0 -0.154009,0.0367504 -0.202983,0.110689 -0.0490139,0.073899 -0.0739389,0.176307 -0.0739389,0.307103l0 0.706102 -0.412576 0 0 -1.43542 0.412576 0 0 0.210031c0.0625514,-0.0835744 0.128607,-0.14525 0.199042,-0.185066 0.069997,-0.0398163 0.147002,-0.0595254 0.23189,-0.0595254 0.148714,0 0.261593,0.0507658 0.339036,0.152258 0.0770047,0.10193 0.115945,0.249807 0.115945,0.443633z"/>
  <polygon id="123" class="fil4" points="13.8071,1.19122 14.2196,1.19122 14.2196,2.27709 14.6952,1.75032 15.1747,1.75032 14.5443,2.4092 15.2245,3.18574 14.7236,3.18574 14.2196,2.58726 14.2196,3.18574 13.8071,3.18574 "/>
  <path id="1234" class="fil4" d="M15.9206 2.04389c-0.0914182,0 -0.160977,0.0363125 -0.208677,0.109375 -0.0476999,0.0730629 -0.071749,0.178496 -0.071749,0.315863 0,0.137804 0.024049,0.2428 0.071749,0.315863 0.0476999,0.0730629 0.117259,0.109813 0.208677,0.109813 0.0905821,0 0.159703,-0.0367504 0.207363,-0.109813 0.0472619,-0.0730629 0.070873,-0.178058 0.070873,-0.315863 0,-0.137366 -0.0236111,-0.2428 -0.070873,-0.315863 -0.0476601,-0.0730629 -0.116781,-0.109375 -0.207363,-0.109375zm0 -0.328126c0.223131,0 0.397247,0.066533 0.521912,0.199957 0.124705,0.132986 0.187256,0.317615 0.187256,0.553407 0,0.235832 -0.0625514,0.42042 -0.187256,0.553884 -0.124665,0.133424 -0.298781,0.199918 -0.521912,0.199918 -0.221817,0 -0.395933,-0.0664932 -0.521912,-0.199918 -0.126457,-0.133464 -0.189446,-0.318053 -0.189446,-0.553884 0,-0.235792 0.0629894,-0.42042 0.189446,-0.553407 0.125979,-0.133424 0.300095,-0.199957 0.521912,-0.199957z"/>
  <path id="12345" class="fil4" d="M18.1264 1.98878c0.0524779,-0.0888302 0.114153,-0.156637 0.185902,-0.203461 0.071749,-0.0463462 0.150944,-0.0695591 0.237146,-0.0695591 0.148754,0 0.262031,0.0507658 0.339912,0.152258 0.0774427,0.10193 0.116383,0.249807 0.116383,0.443633l0 0.874087 -0.415164 0 0 -0.748546c0.000875958,-0.0109495 0.00131394,-0.0227351 0.00175192,-0.0345605 0.000437979,-0.0118254 0.000836142,-0.0288668 0.000836142,-0.0511639 0,-0.10197 -0.0135375,-0.17547 -0.0402145,-0.221379 -0.0271547,-0.04551 -0.070873,-0.0682451 -0.131712,-0.0682451 -0.0774029,0 -0.137804,0.0358745 -0.180686,0.107623 -0.0424044,0.071749 -0.0647413,0.175431 -0.0664932,0.311483l0 0.704788 -0.415164 0 0 -0.748546c0,-0.158787 -0.0127014,-0.261195 -0.0371884,-0.307103 -0.024925,-0.04551 -0.0691211,-0.0682451 -0.13211,-0.0682451 -0.0787566,0 -0.139556,0.0358745 -0.182876,0.108061 -0.0428821,0.0721869 -0.0647413,0.175431 -0.0647413,0.309731l0 0.706102 -0.415204 0 0 -1.43542 0.415204 0 0 0.210031c0.050726,-0.0809465 0.108937,-0.142184 0.174555,-0.183314 0.0656173,-0.0406923 0.138242,-0.0612773 0.217875,-0.0612773 0.0887903,0 0.167547,0.0236509 0.23623,0.071749 0.0691211,0.0476999 0.120763,0.114631 0.155761,0.201271z"/>
  <path id="123456" class="fil4" d="M19.9695 2.53956c-0.0861625,0 -0.150944,0.0166432 -0.194662,0.0490139 -0.0437581,0.0323706 -0.0652191,0.0800706 -0.0652191,0.143498 0,0.0581716 0.0175192,0.103682 0.0525177,0.13649 0.0349985,0.0328086 0.0835744,0.0494518 0.146126,0.0494518 0.0774427,0 0.14306,-0.0310965 0.195976,-0.0932099 0.0529557,-0.0616754 0.0796326,-0.139556 0.0796326,-0.232288l0 -0.0529557 -0.214371 0zm0.630849 -0.172803l0 0.818981 -0.416478 0 0 -0.212619c-0.0555437,0.0870782 -0.118135,0.150506 -0.187256,0.190322 -0.0691211,0.0398163 -0.153532,0.0594855 -0.252435,0.0594855 -0.1343,0 -0.2428,-0.0433201 -0.326334,-0.129921 -0.0831364,-0.0870782 -0.125143,-0.199519 -0.125143,-0.337762 0,-0.168423 0.0525177,-0.291814 0.156637,-0.37053 0.10412,-0.0787566 0.267725,-0.118135 0.490855,-0.118135l0.243676 0 0 -0.0358745c0,-0.0726249 -0.0262389,-0.125581 -0.0778807,-0.159265 -0.0516019,-0.0341226 -0.131672,-0.050726 -0.240172,-0.050726 -0.0888302,0 -0.171489,0.00963554 -0.24718,0.0293048 -0.0761288,0.0196692 -0.147002,0.0494518 -0.213057,0.0883922l0 -0.349587c0.0887903,-0.024049 0.178058,-0.0424044 0.267287,-0.0546678 0.0892681,-0.0122634 0.178496,-0.0183951 0.267327,-0.0183951 0.233164,0 0.401627,0.0507658 0.504871,0.153133 0.103682,0.10193 0.155284,0.268203 0.155284,0.497863z"/>
  <path id="1234567" class="fil4" d="M21.4347 1.34261l0 0.407719 0.425676 0 0 0.328126 -0.425676 0 0 0.608552c0,0.0669312 0.0117856,0.112003 0.0354365,0.135176 0.0236111,0.0236509 0.070873,0.0354365 0.141746,0.0354365l0.212619 0 0 0.328126 -0.353927 0c-0.163207,0 -0.278674,-0.0376264 -0.347397,-0.113317 -0.0682451,-0.0756908 -0.102368,-0.204297 -0.102368,-0.385422l0 -0.608552 -0.205173 0 0 -0.328126 0.205173 0 0 -0.407719 0.41389 0z"/>
 </g>
</svg>
