<?xml version="1.0" encoding="UTF-8"?>
<!DOCTYPE svg PUBLIC "-//W3C//DTD SVG 1.1//EN" "http://www.w3.org/Graphics/SVG/1.1/DTD/svg11.dtd">
<!-- Creator: CorelDRAW -->
<svg xmlns="http://www.w3.org/2000/svg" xml:space="preserve" width="161.925mm" height="119.78mm" style="shape-rendering:geometricPrecision; text-rendering:geometricPrecision; image-rendering:optimizeQuality; fill-rule:evenodd; clip-rule:evenodd"
viewBox="0 0 25.8461 19.119"
 xmlns:xlink="http://www.w3.org/1999/xlink">
 <defs>
  <style type="text/css">
   <![CDATA[
    .fil0 {fill:white}
   ]]>
  </style>
 </defs>
 <g id="Vrstva_x0020_1">
  <metadata id="CorelCorpID_0Corel-Layer"/>
  <path class="fil0" d="M8.67436 10.2677c2.83532,0 5.13382,-2.29846 5.13382,-5.13382 0,-2.83531 -2.29848,-5.13383 -5.13382,-5.13383 -2.83531,0 -5.13383,2.29848 -5.13383,5.13383 0,2.83535 2.29854,5.13382 5.13383,5.13382zm2.43117 -3.10452c-0.233537,0.772167 -1.23399,1.35265 -2.43294,1.35265 -1.19897,0 -2.1994,-0.580482 -2.43296,-1.35265l4.8659 0zm14.7406 5.23607l0 1.34692c0,0.199634 -0.146976,0.431654 -0.329371,0.51282 -0.706835,0.314511 -2.63487,0.958297 -6.5747,0.958297 -0.188732,0 -0.368637,-0.00269754 -0.548223,-0.00561854 -0.172978,-2.8533 -2.33771,-5.20314 -5.19837,-5.59015 0.615869,-0.617002 1.43104,-1.03526 2.34004,-1.13924 0.0595853,-0.00679972 0.147934,0.0187072 0.196505,0.0538391 0.904107,0.65456 2.01098,1.04519 3.21002,1.04519 1.19902,0 2.30587,-0.390633 3.20998,-1.04519 0.0485717,-0.0351798 0.13692,-0.0606867 0.196505,-0.0538391 1.96086,0.224247 3.49761,1.89865 3.49761,3.91697zm-8.49738 3.17928l0 1.69225c0,0.250775 -0.184646,0.542349 -0.413793,0.644297 -0.888097,0.395086 -3.3105,1.20395 -8.26055,1.20395 -4.95008,0 -7.37247,-0.808831 -8.26057,-1.20395 -0.229115,-0.101916 -0.413793,-0.393538 -0.413793,-0.644265l0 -1.69225c0,-2.53591 1.93077,-4.63967 4.39444,-4.92145 0.0748288,-0.00857147 0.185859,0.0235277 0.246897,0.0677418 1.13592,0.822303 2.52662,1.31318 4.03305,1.31318 1.50641,0 2.89711,-0.490872 4.03308,-1.31318 0.0610219,-0.0442141 0.172052,-0.0763132 0.246897,-0.0677418 2.46364,0.281821 4.39436,2.38554 4.39436,4.92141zm1.5933 -15.5784c-2.25672,0 -4.08613,1.82941 -4.08613,4.08609 0,2.25672 1.82941,4.08605 4.08613,4.08605 2.25668,0 4.08609,-1.82941 4.08609,-4.08605 -4.78853e-005,-2.25671 -1.82941,-4.08609 -4.08609,-4.08609zm0 6.73954c-0.984139,0 -1.80521,-0.476459 -1.99691,-1.11024l3.99378 0c-0.191653,0.633826 -1.01282,1.11024 -1.99687,1.11024z"/>
 </g>
</svg>
