<?xml version="1.0" encoding="UTF-8"?>
<!DOCTYPE svg PUBLIC "-//W3C//DTD SVG 1.1//EN" "http://www.w3.org/Graphics/SVG/1.1/DTD/svg11.dtd">
<!-- Creator: CorelDRAW -->
<svg xmlns="http://www.w3.org/2000/svg" xml:space="preserve" width="43.4322mm" height="12.2472mm" style="shape-rendering:geometricPrecision; text-rendering:geometricPrecision; image-rendering:optimizeQuality; fill-rule:evenodd; clip-rule:evenodd"
viewBox="0 0 13.1187 3.69927"
 xmlns:xlink="http://www.w3.org/1999/xlink">
 <defs>
  <style type="text/css">
   <![CDATA[
    .fil0 {fill:none}
    .fil2 {fill:black}
    .fil1 {fill:#077DB0}
    .fil3 {fill:black;fill-rule:nonzero}
    .fil4 {fill:#077DB0;fill-rule:nonzero}
   ]]>
  </style>
 </defs>
 <g id="Vrstva_x0020_1">
  <metadata id="CorelCorpID_0Corel-Layer"/>
  <rect class="fil0" width="13.1187" height="3.69927"/>
  <g id="_135425600">
   <path id="_134863512" class="fil1" d="M1.22916 0.241671l-0.0347358 2.53182c-0.27698,0.052738 -0.510707,0.17229 -0.714863,0.337572 0.378983,-0.143595 0.822544,-0.260972 1.74815,-0.036971 0.76745,0.185701 0.909414,0.0735795 1.46005,0.0506237 -1.1509,-0.00743044 -1.54598,-0.428187 -2.28483,-0.38599l-0.17377 -2.49705z"/>
   <path id="_135945992" class="fil2" d="M0.551544 3.22771c0.448877,-0.347962 0.962514,-0.195125 1.67617,-0.04419 -0.225299,0.0486603 -0.537438,0.0519527 -0.794997,-0.0104207 -0.316519,-0.0766302 -0.619717,-0.075271 -0.881172,0.0546107z"/>
   <path id="_136544112" class="fil2" d="M1.44262 1.57211c1.32331,-0.622828 2.34038,0.0684748 1.65563,0.794302 0.0989819,-0.320536 -0.864408,0.163168 -1.50759,0.371341 0.740628,-0.397196 0.764188,-1.03331 -0.148035,-1.16564z"/>
   <path id="_134815864" class="fil2" d="M1.269 0.814177c0.732684,-0.453499 1.40094,-0.109403 1.20219,0.321472 -0.0502008,-0.226931 -0.557857,0.153532 -0.821245,0.265986 0.173709,-0.166279 0.254145,-0.495333 -0.380946,-0.587458z"/>
  </g>
  <path class="fil3" d="M4.42027 1.60111l0 0.505723 -0.309118 0 0 -1.45066 0.49932 0c0.36089,0 0.541184,0.152807 0.541184,0.458724 0,0.148639 -0.0543389,0.267889 -0.163349,0.357386 -0.10901,0.0894976 -0.245174,0.132661 -0.408856,0.128825l-0.159181 0zm0 -0.705197l0 0.468329 0.133929 0c0.181895,0 0.272691,-0.078956 0.272691,-0.236868 0,-0.154408 -0.0901621,-0.231461 -0.269822,-0.231461l-0.136799 0zm0.894432 -0.159181c0,-0.0463647 0.0163107,-0.0837586 0.0492342,-0.112846 0.0325912,-0.0290875 0.0744856,-0.0434651 0.125955,-0.0434651 0.0524058,0 0.0946022,0.0146797 0.127224,0.0444316 0.0325912,0.0297218 0.0485697,0.0668136 0.0485697,0.111879 0,0.0453982 -0.0162805,0.0834263 -0.0495363,0.113782 -0.0329235,0.0303863 -0.07512,0.0453982 -0.126257,0.0453982 -0.0508351,0 -0.0927295,-0.0153442 -0.125653,-0.0460325 -0.0332256,-0.0303561 -0.0495363,-0.0684144 -0.0495363,-0.113148zm0.0223819 1.3701l0 -1.03573 0.301446 0 0 1.03573 -0.301446 0zm1.23231 -0.761469c-0.0367595,-0.0210831 -0.0815234,-0.0316247 -0.133929,-0.0316247 -0.0687467,0 -0.123086,0.026218 -0.163349,0.0786237 -0.0402935,0.052436 -0.0604403,0.124354 -0.0604403,0.216117l0 0.498353 -0.302413 0 0 -1.03573 0.302413 0 0 0.194672 0.00383604 0c0.0498685,-0.141601 0.140665,-0.212583 0.272359,-0.212583 0.0358232,0 0.0629775,0.0041683 0.0815234,0.0121424l0 0.280031z"/>
  <path class="fil4" d="M6.92611 2.52176l0 -1.45066 0.515298 0c0.157912,0 0.279699,0.030054 0.365058,0.0898298 0.0856917,0.0600778 0.128522,0.14287 0.128522,0.24901 0,0.078956 -0.0265502,0.147703 -0.0796205,0.207146 -0.0530401,0.0591415 -0.119854,0.100069 -0.20041,0.122753l0 0.00353399c0.101006,0.0124445 0.182529,0.0501706 0.244872,0.112514 0.062011,0.0623432 0.0930013,0.140665 0.0930013,0.234965 0,0.131694 -0.0466668,0.236536 -0.140333,0.314223 -0.0936659,0.0776874 -0.221524,0.116682 -0.383906,0.116682l-0.542483 0zm0.309118 -1.22019l0 0.358685 0.147038 0c0.0706496,0 0.126287,-0.016945 0.166883,-0.0508351 0.0405956,-0.0335578 0.0607121,-0.0805569 0.0607121,-0.141299 0,-0.111245 -0.0811912,-0.166551 -0.243574,-0.166551l-0.13106 0zm0 0.591717l0 0.397982 0.183496 0c0.0783217,0 0.139034,-0.0178814 0.183163,-0.0543389 0.0440994,-0.0361252 0.0661793,-0.0862958 0.0661793,-0.150572 0,-0.0613767 -0.0220799,-0.108678 -0.065545,-0.142568 -0.0437973,-0.0335578 -0.105808,-0.0505028 -0.186365,-0.0505028l-0.180928 0zm0.997703 -0.344609c0.0466668,-0.026218 0.109312,-0.0473011 0.187634,-0.0636118 0.0783217,-0.0163107 0.145437,-0.0242849 0.201075,-0.0242849 0.289606,0 0.434439,0.145135 0.434439,0.435376l0 0.625607 -0.287401 0 0 -0.150874 -0.00383604 0c-0.0706496,0.117618 -0.17389,0.176126 -0.310085,0.176126 -0.0981362,0 -0.176458,-0.0278188 -0.235599,-0.0837586 -0.0588092,-0.0559397 -0.088531,-0.132026 -0.088531,-0.227927 0,-0.19884 0.118585,-0.314223 0.355151,-0.346512l0.284501 -0.0386927c0,-0.120518 -0.0626453,-0.180596 -0.187966,-0.180596 -0.12372,0 -0.24007,0.0373938 -0.349382,0.112514l0 -0.233364zm0.34171 0.50382c-0.109312,0.0143776 -0.163983,0.0636118 -0.163983,0.148005 0,0.0386625 0.013411,0.0699851 0.0399613,0.0936659 0.02652,0.0236506 0.0623432,0.0354607 0.107077,0.0354607 0.062011,0 0.112846,-0.0217174 0.152807,-0.0655147 0.0399613,-0.0434953 0.0597758,-0.0978341 0.0597758,-0.162715l0 -0.0741534 -0.195638 0.0252514zm1.72528 0.469266l-0.300812 0 0 -0.577974c0,-0.167185 -0.060108,-0.250944 -0.180626,-0.250944 -0.0575406,0 -0.105174,0.0223819 -0.143202,0.0671458 -0.0380584,0.0444316 -0.0572386,0.10164 -0.0572386,0.170689l0 0.591083 -0.302413 0 0 -1.03573 0.302413 0 0 0.164618 0.00383604 0c0.0754522,-0.126589 0.186697,-0.189869 0.333434,-0.189869 0.229528,0 0.344609,0.142236 0.344609,0.427069l0 0.633913zm1.27644 0l-0.366991 0 -0.344609 -0.512429 -0.00383604 0 0 0.512429 -0.302413 0 0 -1.53315 0.302413 0 0 0.975955 0.00383604 0 0.322862 -0.478539 0.360588 0 -0.383906 0.488778 0.412057 0.546953zm0.150904 -0.973086c0.0466668,-0.026218 0.109312,-0.0473011 0.187634,-0.0636118 0.0783217,-0.0163107 0.145437,-0.0242849 0.201075,-0.0242849 0.289606,0 0.434439,0.145135 0.434439,0.435376l0 0.625607 -0.287401 0 0 -0.150874 -0.00383604 0c-0.0706496,0.117618 -0.17389,0.176126 -0.310085,0.176126 -0.0981362,0 -0.176458,-0.0278188 -0.235599,-0.0837586 -0.0588092,-0.0559397 -0.088531,-0.132026 -0.088531,-0.227927 0,-0.19884 0.118585,-0.314223 0.355151,-0.346512l0.284501 -0.0386927c0,-0.120518 -0.0626453,-0.180596 -0.187966,-0.180596 -0.12372,0 -0.24007,0.0373938 -0.349382,0.112514l0 -0.233364zm0.34171 0.50382c-0.109312,0.0143776 -0.163983,0.0636118 -0.163983,0.148005 0,0.0386625 0.013411,0.0699851 0.0399613,0.0936659 0.02652,0.0236506 0.0623432,0.0354607 0.107077,0.0354607 0.062011,0 0.112846,-0.0217174 0.152807,-0.0655147 0.0399613,-0.0434953 0.0597758,-0.0978341 0.0597758,-0.162715l0 -0.0741534 -0.195638 0.0252514z"/>
 </g>
</svg>
