<?xml version="1.0" encoding="UTF-8"?>
<!DOCTYPE svg PUBLIC "-//W3C//DTD SVG 1.1//EN" "http://www.w3.org/Graphics/SVG/1.1/DTD/svg11.dtd">
<!-- Creator: CorelDRAW -->
<svg xmlns="http://www.w3.org/2000/svg" xml:space="preserve" width="148.431mm" height="161.925mm" style="shape-rendering:geometricPrecision; text-rendering:geometricPrecision; image-rendering:optimizeQuality; fill-rule:evenodd; clip-rule:evenodd"
viewBox="0 0 42.3986 46.253"
 xmlns:xlink="http://www.w3.org/1999/xlink">
 <defs>
  <style type="text/css">
   <![CDATA[
    .fil0 {fill:white}
   ]]>
  </style>
 </defs>
 <g id="Vrstva_x0020_1">
  <metadata id="CorelCorpID_0Corel-Layer"/>
  <path class="fil0" d="M18.8866 22.3556c6.17326,0 11.1777,-5.00446 11.1777,-11.1778 0,-6.17324 -5.00449,-11.1778 -11.1777,-11.1778 -6.17335,0 -11.1778,5.00446 -11.1778,11.1778 0,6.17332 5.00446,11.1778 11.1778,11.1778zm5.29496 -6.74113c-0.508562,1.68128 -2.68669,2.94508 -5.29716,2.94508 -2.61056,0 -4.78877,-1.26386 -5.29725,-2.94508l10.5944 0zm18.217 22.9297l0 1.54177c0,0.42581 -0.345087,0.770898 -0.770812,0.770898l-4.62536 0 0 4.62527c0,0.42581 -0.345087,0.770898 -0.770812,0.770898l-1.54177 0c-0.425725,0 -0.770812,-0.345087 -0.770812,-0.770898l0 -4.62521 -4.62544 0c-0.425725,0 -0.770812,-0.345087 -0.770812,-0.770898l0 -1.54182c0,-0.425725 0.345087,-0.770812 0.770812,-0.770812l4.62536 0 0 -4.6253c0,-0.42581 0.345087,-0.770898 0.770812,-0.770898l1.54177 2.85645e-005c0.425725,0 0.770812,0.345087 0.770812,0.770898l0 4.6253 4.62539 -2.85645e-005c0.425782,-8.56934e-005 0.770869,0.345087 0.770869,0.770812zm-15.4177 0l0 1.54177c0,0.409557 0.116,0.788865 0.303526,1.12284 -2.328,0.253195 -5.10295,0.418841 -8.39778,0.418841 -10.7778,0 -16.052,-1.76108 -17.9857,-2.62145 -0.498964,-0.222032 -0.900952,-0.856734 -0.900952,-1.40286l0 -3.68444c0,-5.52134 4.20389,-10.1018 9.56795,-10.7153 0.163017,-0.0186812 0.404701,0.0511589 0.537583,0.147307 2.47331,1.79048 5.50123,2.85913 8.78111,2.85913 3.27989,0 6.30786,-1.06865 8.78111,-2.85916 0.132853,-0.096148 0.374623,-0.165959 0.537583,-0.147307 4.43983,0.50779 8.07683,3.73637 9.20101,7.96351 -0.345544,-0.205864 -0.744275,-0.331719 -1.17483,-0.331719l-1.5418 5.71289e-005c-1.2752,0 -2.31264,1.03738 -2.31264,2.31264l0 3.08353 -3.08353 0c-1.2752,-8.56934e-005 -2.31266,1.03729 -2.31266,2.31258z"/>
 </g>
</svg>
