<?xml version="1.0" encoding="UTF-8"?>
<!DOCTYPE svg PUBLIC "-//W3C//DTD SVG 1.1//EN" "http://www.w3.org/Graphics/SVG/1.1/DTD/svg11.dtd">
<!-- Creator: CorelDRAW -->
<svg xmlns="http://www.w3.org/2000/svg" xml:space="preserve" width="545.884mm" height="210mm" style="shape-rendering:geometricPrecision; text-rendering:geometricPrecision; image-rendering:optimizeQuality; fill-rule:evenodd; clip-rule:evenodd"
viewBox="0 0 272.942 105"
 xmlns:xlink="http://www.w3.org/1999/xlink"
 version="1.1">
 <defs>
  <style type="text/css">
   <![CDATA[
    .fil0 {fill:#ffffff}
   ]]>
  </style>
 </defs>
 <g id="Vrstva_x0020_1">
  <metadata id="CorelCorpID_0Corel-Layer"/>
  <g id="_121220136">
   <g>
    <path id="_123857200" class="fil0" d="M60.3125 82.4019c0,-0.59845 -0.3191,-1.15135 -0.8374,-1.4506l-19.8765 -11.4765 0 -25.6527 9.2446 -26.0518c0.23135,-0.65225 0.03795,-1.3796 -0.48725,-1.83045l-4.16285 -3.57555c-0.0777,-0.06675 -0.16235,-0.1275 -0.25365,-0.18045l-20.7131 -11.9593c-0.43275,-0.2499 -0.95465,-0.29365 -1.42245,-0.1188 -0.46825,0.1744 -0.8338,0.5489 -0.9975,1.02095l-10.3564 29.8974c-0.06095,0.1764 -0.0922,0.36175 -0.0922,0.5482l0 40.8886 -9.52035 5.49755c-0.5183,0.29925 -0.8374,0.85215 -0.8374,1.4506 0,0.0056 0.0011,0.01095 0.0011,0.0163l0 5.9669c0,0.59845 0.31935,1.15135 0.8376,1.4506l31.0697 17.9329c0.25905,0.1496 0.548,0.2242 0.83715,0.2242 0.28915,0 0.57835,-0.0748 0.8374,-0.2244l25.8874 -14.946c0.51785,-0.299 0.83695,-0.85145 0.8374,-1.44925 0,0.00025 0.0047,-5.97495 0.0047,-5.9783zm-23.967 -39.4284c-0.06365,0.18 -0.09645,0.36935 -0.09645,0.56005l0 43.8762 -1.8331 1.05845 0.00045 -44.6526 9.46205 -27.3066 1.424 1.22325 -8.95695 25.2413zm-22.6382 -11.1195l9.6003 -27.7148 17.759 10.2535 -9.90755 28.5924c-0.06095,0.1764 -0.0922,0.36175 -0.0922,0.54845l-0.00045 44.9346 -17.359 -10.0224 -5e-005 -46.5918zm-3.34955 44.4748l0 3.08405c0,0.59845 0.31935,1.15115 0.8374,1.45035l20.7086 11.9562c0.25905,0.1496 0.5482,0.2244 0.8374,0.2244 0.2892,0 0.57835,-0.0748 0.8374,-0.2244l5.18265 -2.9923c0.51805,-0.29925 0.8374,-0.8519 0.8374,-1.45035l0 -15.034 15.6891 9.0588 -22.5423 13.0106 -27.721 -16.0034 5.33335 -3.08zm-7.0071 5.98125l27.7202 16.0027 0 2.112 -27.7202 -15.9996 0 -2.1151zm31.0697 18.1142l0 -2.1118 22.5399 -13.0091 -0.00155 2.1082 -22.5383 13.0127z"/>
    <path id="_123857296" class="fil0" d="M38.5312 14.1992l-12.8641 -7.4262c-0.43275,-0.2499 -0.95485,-0.2932 -1.42245,-0.1188 -0.46825,0.1746 -0.8338,0.5489 -0.9975,1.02115l-8.3467 24.0986c-0.26285,0.75835 0.0498,1.59665 0.7447,1.99815l12.8597 7.4309c0.2577,0.14895 0.54685,0.22465 0.83785,0.22465 0.1974,0 0.39545,-0.03485 0.5846,-0.1054 0.4685,-0.1744 0.83425,-0.5489 0.99795,-1.02095l8.35115 -24.1031c0.26285,-0.759 -0.04975,-1.5975 -0.74515,-1.999zm-10.107 23.0886l-9.90625 -5.7242 7.2306 -20.8759 9.9098 5.72085 -7.23415 20.8792z"/>
    <path id="_123857392" class="fil0" d="M28.4012 45.0732l-10.3526 -5.9819c-0.80055,-0.4629 -1.82505,-0.1887 -2.288,0.6121 -0.4627,0.801 -0.1887,1.8253 0.6123,2.2882l10.3526 5.9819c0.26395,0.1525 0.552,0.2251 0.8363,0.2251 0.5786,0 1.1413,-0.30035 1.4517,-0.83715 0.46265,-0.80105 0.18865,-1.8253 -0.6123,-2.28825z"/>
   </g>
   <g>
   </g>
   <g>
   </g>
   <g>
   </g>
   <g>
   </g>
   <g>
   </g>
   <g>
   </g>
   <g>
   </g>
   <g>
   </g>
   <g>
   </g>
   <g>
   </g>
   <g>
   </g>
   <g>
   </g>
   <g>
   </g>
   <g>
   </g>
   <g>
   </g>
  </g>
 </g>
</svg>
