<?xml version="1.0" encoding="UTF-8"?>
<!DOCTYPE svg PUBLIC "-//W3C//DTD SVG 1.1//EN" "http://www.w3.org/Graphics/SVG/1.1/DTD/svg11.dtd">
<!-- Creator: CorelDRAW -->
<svg xmlns="http://www.w3.org/2000/svg" xml:space="preserve" width="207.505mm" height="185.463mm" style="shape-rendering:geometricPrecision; text-rendering:geometricPrecision; image-rendering:optimizeQuality; fill-rule:evenodd; clip-rule:evenodd"
viewBox="0 0 25.8951 23.1444"
 xmlns:xlink="http://www.w3.org/1999/xlink">
 <defs>
  <style type="text/css">
   <![CDATA[
    .fil0 {fill:white}
   ]]>
  </style>
 </defs>
 <g id="Vrstva_x0020_1">
  <metadata id="CorelCorpID_0Corel-Layer"/>
  <path class="fil0" d="M24.1966 17.6864l0.21951 -0.353363c0.0620844,-0.119027 0.124069,-0.238055 0.180313,-0.355659l0.000599005 -0.00122297c0.0542474,-0.110878 0.0869431,-0.174984 0.119651,-0.239165 0.084909,-0.166611 0.169319,-0.332211 0.239115,-0.499096l-4.99171e-005 -1.24793e-005c0.00621468,-0.0163104 0.0507657,-0.131382 0.0960904,-0.248512 0.166573,-0.430473 0.333109,-0.860795 0.43967,-1.30928l0.00304494 -0.00974631c0.13384,-0.431733 0.204311,-0.877343 0.275068,-1.32484 0.0177455,-0.112289 0.0355784,-0.224926 0.0470968,-0.294835 0.0227248,-0.170043 0.0311982,-0.343093 0.0396591,-0.516118 0.0052413,-0.107297 0.0105075,-0.214656 0.0177455,-0.308662l0.000187189 1.24793e-005 0.0208653 -0.406887 -0.000199668 0 0 -0.0268304 0 -0.0107322 0 -0.00536609 0 -0.0590145 0 -0.0482823 0.000137272 0 -0.00489188 -0.0880288 -0.0107322 -0.193142 0 -0.00244594 -0.0317847 -0.757654 -0.122409 -0.862193 -0.00017471 2.49585e-005c-0.00193429,-0.0131407 -0.00862318,-0.0616351 -0.0154369,-0.111265 -0.0145883,-0.105986 -0.029189,-0.212023 -0.0508406,-0.302797l-0.000411816 9.98342e-005 -0.101931 -0.407735 1.24793e-005 0c-0.0250085,-0.0896761 -0.0483198,-0.183071 -0.0716435,-0.276603 -0.0436275,-0.174922 -0.0874548,-0.350555 -0.148828,-0.51764l-0.00182197 -0.00608989c-0.16379,-0.509329 -0.368925,-1.00579 -0.60683,-1.48677 -0.253404,-0.512324 -0.543597,-1.00615 -0.860359,-1.47857l0.000199668 -0.000124793c-0.314053,-0.443513 -0.658743,-0.863029 -1.02903,-1.25846 -0.38254,-0.408509 -0.795217,-0.793382 -1.23212,-1.1543 -0.43202,-0.357718 -0.886203,-0.692862 -1.36058,-0.994823 -0.443002,-0.281982 -0.908092,-0.537707 -1.39443,-0.759014l0.000124793 -0.000274544c-0.198221,-0.0844972 -0.400198,-0.165026 -0.603311,-0.242185 -0.205084,-0.0778956 -0.408447,-0.151461 -0.608751,-0.221744l-0.636031 -0.171041 0 -1.24793e-005c-0.0428413,-0.0107571 -0.110516,-0.0292265 -0.177979,-0.0476209 -0.146869,-0.040046 -0.293313,-0.0799672 -0.443863,-0.0983242l-0.00670137 -0.00121049 -0.654513 -0.107297 -0.318821 -0.0522632 -0.325821 -0.0210276 0 -7.48756e-005 -0.658669 -0.0374753 -0.00121049 0 -0.166311 -0.0107322 -0.0331824 -1.24793e-005 0 0.000611484 -0.0107197 0 -0.0643806 0 -0.0190559 0 -0.066552 0.0047546 -0.00549088 0 -0.299216 0.0106947 0 3.74378e-005 -0.606231 0.0268304 -0.00670137 0.000611484c-0.0661152,0 -0.151037,0.0128162 -0.235933,0.02562 -0.0127164,0.00192181 -0.0251582,0.00380618 -0.0693848,0.0101082l-0.000611484 0 -0.342157 0.0481076 2.49585e-005 0.00017471 -0.679334 0.100833 -0.635931 0.158986 -8.73549e-005 -0.00034942c-0.0694222,0.0190309 -0.133566,0.0346175 -0.197509,0.0501292 -0.14441,0.0350543 -0.288346,0.0700087 -0.418268,0.124718l-0.00731285 0.00304494 -0.620507 0.224664 1.24793e-005 4.99171e-005 -0.304582 0.115533 -0.294224 0.141852 -0.593003 0.288496c-1.54978,0.804115 -2.88423,1.9798 -3.90384,3.37723 -1.02699,1.40754 -1.73468,3.04009 -2.02141,4.74452l-9.98342e-005 -1.24793e-005c-0.014426,0.111066 -0.0286399,0.22907 -0.0425044,0.353026 -0.0147006,0.131394 -0.0269303,0.249598 -0.0366641,0.354299l-0.000848591 0.00909739c-0.020466,0.219885 -0.0404453,0.434691 -0.0253704,0.635919l0 0.00549088c0.00244594,0.0588398 0.00500419,0.116918 0.00872301,0.184656 0.00290767,0.0528996 0.00683864,0.110342 0.0127413,0.178204l0.0549837 0.632 -0.341371 -0.535124c-0.227884,-0.357232 -0.47692,-0.720341 -0.725944,-1.08344 -0.38068,-0.555066 -0.761473,-1.11028 -1.10177,-1.70166l-0.000611484 0c-0.00641435,-0.0112438 -0.0125666,0.0132655 -0.0425793,0.00937194 -0.0653165,-0.00848591 -0.140841,-0.00516642 -0.193204,0.00949673l-0.00243346 0.000611484c-0.0860072,0.0228121 -0.151112,0.0680994 -0.199668,0.12624 -0.0625586,0.0749256 -0.10077,0.1731 -0.12216,0.27533l-0.000237106 -4.99171e-005c-0.0693099,0.342544 -0.069572,0.670786 -0.0179078,0.982406 0.057779,0.348559 0.181261,0.677437 0.346262,0.98308 0.140017,0.259357 0.279486,0.524055 0.418954,0.78879 0.465315,0.883196 0.931116,1.76731 1.49315,2.5878l0.00486692 0.00792434 0.012367 0.0206158c0.0212772,0.0297506 0.0428788,0.0595012 0.0717808,0.0884032l0.00304494 0.00365643 0.000399337 0.000424295 0.00122297 0.00122297c0.158612,0.172014 0.372419,0.2637 0.58997,0.272173 0.218562,0.00849839 0.441205,-0.0664521 0.616276,-0.227697l0.000611484 0 9.98342e-005 -9.98342e-005 -0.000274544 -0.000299503c0.131245,-0.120525 0.258446,-0.242372 0.381392,-0.365967 0.122297,-0.122946 0.243808,-0.25117 0.364694,-0.385485l0.00959656 -0.0106573 0.0135525 -0.0100583c0.062621,-0.0464603 0.0989856,-0.073141 0.13424,-0.0989856 0.124181,-0.0910737 0.247639,-0.181598 0.35506,-0.267531l0.000611484 -0.00121049c0.510203,-0.400685 1.01031,-0.812688 1.48236,-1.25089 0.472253,-0.438384 0.917601,-0.903362 1.31881,-1.41007l-7.48756e-005 -4.99171e-005c0.101856,-0.130284 0.164527,-0.279274 0.15669,-0.428938 -0.00663897,-0.127039 -0.065616,-0.259893 -0.196935,-0.389191 -0.13535,-0.133042 -0.288958,-0.21392 -0.440493,-0.237992 -0.143175,-0.0227622 -0.285975,0.00562815 -0.409457,0.0893516l-0.105338 0.0714813c-0.529171,0.358916 -1.05872,0.718082 -1.51742,1.14721l0 0.000611484c-0.459063,0.427028 -1.20935,1.00406 -1.64172,1.45778l0.051165 -0.282181c0.0157488,-0.0503913 0.0293263,-0.094855 0.0396342,-0.130408 0.0115808,-0.0400086 0.0244594,-0.0865562 0.0390102,-0.141864l0.00122297 -0.00304494c0.0394595,-0.13681 0.0790687,-0.283354 0.116881,-0.441267 0.0361275,-0.150874 0.0712442,-0.316774 0.10384,-0.501305 0.0139643,-0.1131 0.0426666,-0.220022 0.0721552,-0.329902 0.0212647,-0.0792559 0.0430036,-0.160234 0.0575544,-0.237144l0.000611484 -0.00426791c0.0264061,-0.12211 0.0484321,-0.224989 0.0643806,-0.301225 0.0160608,-0.0768599 0.0367639,-0.178279 0.0637691,-0.313292l0.00183445 -0.00671385c0.189248,-0.770533 0.468385,-1.5155 0.825354,-2.21945 0.361724,-0.713303 0.803977,-1.38526 1.31418,-1.99982l-6.23964e-005 -4.99171e-005c0.491633,-0.597932 1.05371,-1.13058 1.66424,-1.59671 0.640836,-0.489287 1.33554,-0.905908 2.05861,-1.24844 0.208466,-0.114098 0.427964,-0.19429 0.647088,-0.274319 0.0779206,-0.0284777 0.155941,-0.0569679 0.227884,-0.0848715l-2.49585e-005 -6.23964e-005c0.229169,-0.0976004 0.459599,-0.158599 0.693898,-0.220609 0.0718307,-0.0190059 0.144123,-0.0381491 0.220933,-0.0597008l0.00426791 -0.00121049c0.0449004,-0.0112189 0.0951669,-0.025595 0.145359,-0.0399212 0.104714,-0.0299128 0.209452,-0.0598381 0.321129,-0.0757991l3.74378e-005 0.000224627 0.436263 -0.0691726 -3.74378e-005 -0.000187189 0.445285 -0.0751128 0.00778707 -0.00131032 0.00806161 -0.00051165 0.509666 -0.032184c0.644093,-0.0412939 1.28921,-0.0256075 1.92611,0.0498672 0.622616,0.0737775 1.23957,0.205272 1.84233,0.397128l0.000112313 -0.000374378c1.22331,0.380406 2.37332,1.00225 3.37483,1.81241 0.993375,0.803578 1.84155,1.79311 2.47126,2.91681l0.00482948 0.00862318 0.00369387 0.00904747 0.32189 0.78864 -0.000224627 8.73549e-005c0.0489812,0.108208 0.0827002,0.217501 0.116045,0.325647 0.0122422,0.0396841 0.024659,0.0798923 0.0273171,0.088216l0.00122297 0.00183445 0.123395 0.407735 -0.000386858 0.000112313c0.0759738,0.213233 0.119102,0.427839 0.162031,0.641472 0.0103204,0.0514146 0.020803,0.103478 0.0398962,0.192031l0 0.000611484 0.0858324 0.413101 0.00122297 0.00731285c0.00467973,0.0293013 0.00859822,0.0573547 0.0119801,0.0845596l0.113848 1.86581 0 0.112663 0 0.00537857 0 0.0214519 0 0.0160983 0 0.00536609 -0.00399337 0 -0.0023461 0.0234985 0.000361899 2.49585e-005 -0.0697467 0.836923 -0.000611484 0.00183445c-0.0176457,0.183608 -0.0512898,0.356945 -0.0847468,0.529446 -0.0208279,0.107334 -0.0416059,0.214381 -0.0559446,0.305879l-0.00122297 0.00731285c-0.228945,1.11996 -0.639426,2.20478 -1.21295,3.1928 -0.559533,0.963887 -1.27438,1.83631 -2.12752,2.56026l-7.48756e-005 -9.98342e-005c-0.42769,0.370347 -0.88498,0.703769 -1.36639,0.996807 -0.481276,0.292951 -0.988059,0.54623 -1.51482,0.756381l-0.00670137 0.00244594c-0.0826128,0.0286524 -0.180775,0.0658781 -0.278974,0.103116 -0.170317,0.0645802 -0.340846,0.129248 -0.518202,0.178903l-0.00304494 0.000611484 -0.810092 0.209228 -0.00638939 0.00164726 -0.00884781 0.00139768 -0.776011 0.122247c-0.107546,0.0240476 -0.235933,0.0320218 -0.366878,0.0401333 -0.0241224,0.00148503 -0.0476833,0.00294511 -0.0883408,0.00575295l-0.00182197 0 -0.461384 0.0268304 -0.00183445 0 -0.228271 0.0106199 1.24793e-005 0.000112313 -0.0911985 0.00536609 -0.00913483 0 -0.0214269 -3.74378e-005 0 0.000611484 -0.0536484 0 -0.00365643 -0.000611484 -0.418455 -0.0107322 -0.00792434 0c-0.0581534,-0.00448006 -0.0983741,-0.00746261 -0.137372,-0.0103204 -0.232963,-0.017184 -0.465315,-0.0343305 -0.703307,-0.0715062l-1.24793e-005 0.000137272c-0.280696,-0.0381616 -0.558797,-0.0886028 -0.834227,-0.151324 -0.275655,-0.0627708 -0.548402,-0.137759 -0.818154,-0.224951l6.23964e-005 -0.00017471c-0.53435,-0.170043 -1.05008,-0.388692 -1.54133,-0.64871 -0.504762,-0.267169 -0.985413,-0.578639 -1.43548,-0.926549l-0.00183445 -0.00121049c-0.0666518,-0.0528497 -0.146731,-0.105537 -0.232052,-0.155629 -0.102305,-0.0600752 -0.214668,-0.117892 -0.32224,-0.168845l4.99171e-005 -9.98342e-005c-0.0760362,-0.0321591 -0.142963,-0.0630952 -0.207792,-0.0930829 -0.128324,-0.0593389 -0.248425,-0.114884 -0.305842,-0.125317l-0.00549088 -0.000611484c-0.059027,-0.0128287 -0.0815521,-0.0240101 -0.0832243,-0.0219136 -0.0019842,0.0024709 0.00647674,0.0348047 0.0232738,0.0909365l0.000112313 -3.74378e-005c0.0152996,0.0484445 0.0371508,0.104626 0.0654663,0.165575 0.0260817,0.0561318 0.0579538,0.117031 0.0955788,0.1807l0.000162231 -9.98342e-005c0.0430535,0.0699838 0.0896511,0.141378 0.139418,0.211424 0.0532366,0.0749131 0.111328,0.151186 0.174423,0.226923l0.00122297 0.00122297c0.440581,0.540602 0.993662,1.0542 1.63917,1.50358 0.609126,0.424033 1.29963,0.789951 2.05459,1.06634 0.397964,0.146182 0.810716,0.268504 1.23374,0.361899 0.405027,0.0894265 0.823432,0.153171 1.25168,0.186915l-1.24793e-005 0.000162231 0.330189 0.0213021 0.000611484 0 0.0804788 0.00536609 0.00853582 0.000611484 0.0331325 0.00414312 0.012342 0 0.0107322 0 0.0429162 0 0.155579 0 0 0.00051165c0.102343,-0.00259569 0.208204,-0.00394345 0.314727,-0.00529121 0.102742,-0.00131032 0.206158,-0.00263313 0.314677,-0.00534113l0.00122297 0 0.303147 -0.00514146 0.340272 -0.0425294 4.99171e-005 0.000436775 0.684164 -0.0901628 -4.99171e-005 -0.000262065c1.07311,-0.189523 2.11827,-0.529134 3.09617,-1.0073 0.964511,-0.471617 1.86465,-1.07791 2.66283,-1.80782l0.00121049 -0.00121049c0.415123,-0.371446 0.809967,-0.773603 1.1722,-1.20665 0.336466,-0.402232 0.643569,-0.830146 0.911087,-1.28367l0.00182197 -0.00304494z"/>
 </g>
</svg>
