<?xml version="1.0" encoding="UTF-8"?>
<!DOCTYPE svg PUBLIC "-//W3C//DTD SVG 1.1//EN" "http://www.w3.org/Graphics/SVG/1.1/DTD/svg11.dtd">
<!-- Creator: CorelDRAW -->
<svg xmlns="http://www.w3.org/2000/svg" xml:space="preserve" width="179.089mm" height="210mm" style="shape-rendering:geometricPrecision; text-rendering:geometricPrecision; image-rendering:optimizeQuality; fill-rule:evenodd; clip-rule:evenodd"
viewBox="0 0 43.5597 51.078"
 xmlns:xlink="http://www.w3.org/1999/xlink">
 <defs>
  <style type="text/css">
   <![CDATA[
    .fil0 {fill:#000000}
   ]]>
  </style>
 </defs>
 <g id="Vrstva_x0020_1">
  <metadata id="CorelCorpID_0Corel-Layer"/>
  <path class="fil0" d="M42.7692 8.82005c-7.0277,-1.92562 -14.0967,-4.92395 -20.4428,-8.67079 -0.337091,-0.199034 -0.755395,-0.199034 -1.09239,0 -6.52918,3.85449 -13.2162,6.69061 -20.4434,8.67079 -0.466877,0.127792 -0.790517,0.552178 -0.790517,1.03632l0 10.9784c0,11.3052 5.21543,18.7886 9.59077,23.0754 4.71034,4.61546 10.1972,7.16788 12.1894,7.16788 1.99192,0 7.47879,-2.55239 12.1891,-7.16788 4.37525,-4.28676 9.59038,-11.7701 9.59038,-23.0754l2.43229e-005 -10.9785c0,-0.484025 -0.323616,-0.90841 -0.790493,-1.0362zm-1.35836 12.0146c0,10.559 -4.86448,17.5418 -8.94551,21.5405 -4.63202,4.53865 -9.5845,6.55384 -10.6851,6.55384 -1.10066,0 -6.05343,-2.01517 -10.6856,-6.55384 -4.08094,-3.99875 -8.94561,-10.9815 -8.94561,-21.5405l-2.43229e-005 -10.1627c6.91129,-1.96232 13.3477,-4.70088 19.6314,-8.35245 6.12674,3.55471 12.8843,6.42943 19.6304,8.35203l0 10.1631zm-29.1544 -10.2829c-0.217471,-0.552178 -0.841279,-0.823426 -1.39358,-0.605858 -1.91941,0.756295 -3.88949,1.45244 -5.85551,2.06915 -0.448027,0.140659 -0.75289,0.55568 -0.75289,1.02516l0 4.14919c0,0.593381 0.481155,1.07444 1.07444,1.07444 0.593283,0 1.07444,-0.481058 1.07444,-1.07444l0 -3.36395c1.76368,-0.570639 3.52548,-1.20182 5.24727,-1.8803 0.552178,-0.217398 0.823426,-0.841206 0.605834,-1.39338zm2.04103 0.203826c0.144162,0 0.290512,-0.0290415 0.43088,-0.0902865l0.0197502 -0.00858597c0.543592,-0.238242 0.788426,-0.871026 0.550183,-1.41442 -0.238437,-0.543592 -0.87482,-0.78952 -1.4178,-0.551472l-0.0173665 0.00749144c-0.543908,0.237537 -0.78952,0.86981 -0.551983,1.41352 0.176268,0.403614 0.571831,0.643753 0.986341,0.643753zm20.284 23.89c-0.496503,-0.324516 -1.16232,-0.184951 -1.48725,0.311746 -0.885377,1.35517 -1.92411,2.65287 -3.08771,3.85668 -0.95691,0.989843 -1.99384,1.91243 -3.08193,2.74194 -0.471766,0.359735 -0.562564,1.03394 -0.202926,1.5059 0.211585,0.277232 0.531528,0.423096 0.855168,0.423096 0.227249,0 0.4562,-0.0717281 0.650734,-0.220171 1.1737,-0.89496 2.29202,-1.88989 3.32374,-2.95713 1.2581,-1.3013 2.3824,-2.70594 3.34191,-4.17492 0.324735,-0.496819 0.184951,-1.16261 -0.311746,-1.48715zm-10.1521 8.59546l-0.0616585 0.036314c-0.51348,0.297396 -0.688945,0.954624 -0.391671,1.46808 0.199229,0.344169 0.559864,0.536319 0.930885,0.536319 0.182567,0 0.367932,-0.0465783 0.537219,-0.144843l0.0711201 -0.041811c0.512069,-0.299877 0.684056,-0.958005 0.38418,-1.4701 -0.300071,-0.51185 -0.958297,-0.683545 -1.47007,-0.383961zm-9.97303 -19.8948c-0.659733,-0.659831 -1.53713,-1.02292 -2.4703,-1.02292 -0.933171,0 -1.81067,0.363213 -2.47069,1.02292 -1.36206,1.36235 -1.36206,3.57904 0,4.94129l6.34442 6.34423c0.659831,0.659612 1.53723,1.02285 2.4705,1.02285 0.933268,0 1.81067,-0.363238 2.47059,-1.02304l13.2444 -13.2445c1.36193,-1.36264 1.36193,-3.57904 -0.000194583,-4.9409 -0.659831,-0.659831 -1.53723,-1.02295 -2.47059,-1.02295 -0.933268,0 -1.81067,0.363238 -2.47059,1.02295l-10.7737 10.7737 -3.87383 -3.87364zm16.1671 -5.38053c0.253882,-0.253882 0.591775,-0.393666 0.951121,-0.393666 0.359541,0 0.697142,0.139759 0.951219,0.393666 0.524255,0.524255 0.524255,1.3776 -0.000194583,1.90205l-13.2442 13.2443c-0.253882,0.253882 -0.591775,0.393666 -0.951121,0.393666 -0.359346,0 -0.697239,-0.139759 -0.951219,-0.393666l-6.34423 -6.34404c-0.52445,-0.52445 -0.52445,-1.37782 -0.000194583,-1.90205 0.254004,-0.253882 0.591897,-0.39386 0.951316,-0.39386 0.359419,0 0.697142,0.139759 0.951024,0.393666l4.63343 4.63353c0.201612,0.201418 0.474758,0.314641 0.759773,0.314641 0.285015,0 0.558161,-0.113126 0.759579,-0.314641l11.5337 -11.5336z"/>
 </g>
</svg>
