<?xml version="1.0" encoding="UTF-8"?>
<!DOCTYPE svg PUBLIC "-//W3C//DTD SVG 1.1//EN" "http://www.w3.org/Graphics/SVG/1.1/DTD/svg11.dtd">
<!-- Creator: CorelDRAW -->
<svg xmlns="http://www.w3.org/2000/svg" xml:space="preserve" width="210mm" height="210mm" style="shape-rendering:geometricPrecision; text-rendering:geometricPrecision; image-rendering:optimizeQuality; fill-rule:evenodd; clip-rule:evenodd"
viewBox="0 0 91.2333 91.2333"
 xmlns:xlink="http://www.w3.org/1999/xlink">
 <defs>
  <style type="text/css">
   <![CDATA[
    .fil0 {fill:white}
   ]]>
  </style>
 </defs>
 <g id="Vrstva_x0020_1">
  <metadata id="CorelCorpID_0Corel-Layer"/>
  <path class="fil0" d="M89.1692 79.2597l-77.1956 0 0 -77.1956c0,-1.13998 -0.924324,-2.06409 -2.06409,-2.06409 -1.13976,0 -2.06409,0.924107 -2.06409,2.06409l0 77.1956 -5.78137 4.34444e-005c-1.13981,0 -2.06409,0.924107 -2.06409,2.06409 0,1.13998 0.924324,2.06409 2.06409,2.06409l5.78137 0 0 5.78137c0,1.13998 0.924324,2.06409 2.06409,2.06409 1.13976,0 2.06409,-0.924107 2.06409,-2.06409l0 -5.78133 77.1956 -4.34444e-005c1.13981,0 2.06409,-0.924107 2.06409,-2.06409 0,-1.13998 -0.924324,-2.06409 -2.06409,-2.06409zm-66.0443 -4.12822c3.87268,0 7.0231,-3.15063 7.0231,-7.0231 0,-1.53033 -0.493529,-2.94671 -1.32762,-4.10176l11.9654 -14.5166c0.825444,0.341604 1.72887,0.531108 2.67631,0.531108 1.78379,0 3.41321,-0.669609 4.65333,-1.76914l8.87709 5.41166c-0.141194,0.554221 -0.216527,1.13442 -0.216527,1.732 0,3.87268 3.15063,7.0231 7.0231,7.0231 3.87246,0 7.0231,-3.15063 7.0231,-7.0231 0,-2.03602 -0.871669,-3.87164 -2.26041,-5.15551l14.4248 -30.0694c0.374448,0.0619083 0.758149,0.095795 1.14971,0.095795 3.87268,0 7.0231,-3.15063 7.0231,-7.0231 0,-3.87246 -3.15063,-7.0231 -7.0231,-7.0231 -3.87246,0 -7.0231,3.15063 -7.0231,7.0231 0,1.99662 0.838869,3.8 2.18113,5.07996l-14.4526 30.1272c-0.340387,-0.0507866 -0.688377,-0.077809 -1.04258,-0.077809 -1.78379,0 -3.41321,0.669609 -4.65333,1.76914l-8.87709 -5.41166c0.141194,-0.554221 0.216527,-1.13442 0.216527,-1.732 0,-3.87268 -3.15063,-7.02332 -7.0231,-7.02332 -3.87246,0 -7.0231,3.15063 -7.0231,7.02332 0,1.42693 0.428927,2.75494 1.16292,3.86443l-12.0727 14.6469c-0.750285,-0.274308 -1.56005,-0.424192 -2.40426,-0.424192 -3.87268,0 -7.0231,3.15063 -7.0231,7.02332 0,3.87268 3.15046,7.02279 7.0231,7.02279zm61.0116 -64.7833c1.59615,0 2.89492,1.29873 2.89492,2.89492 0,1.59619 -1.29873,2.89492 -2.89492,2.89492 -1.59619,0 -2.89492,-1.29873 -2.89492,-2.89492 0,-1.59619 1.29873,-2.89492 2.89492,-2.89492zm-20.3372 42.1525c1.59615,0 2.89492,1.29873 2.89492,2.89492 0,1.59619 -1.29873,2.89492 -2.89492,2.89492 -1.59619,0 -2.89492,-1.29873 -2.89492,-2.89492 0,-1.59619 1.29855,-2.89492 2.89492,-2.89492zm-20.337 -12.3978c1.59615,0 2.89492,1.29873 2.89492,2.89509 0,1.59615 -1.29873,2.89492 -2.89492,2.89492 -1.59619,0 -2.89492,-1.29873 -2.89492,-2.89492 -0.000173778,-1.59637 1.29855,-2.89509 2.89492,-2.89509zm-20.3374 25.1104c1.59615,0 2.89492,1.29873 2.89492,2.89509 0,1.59615 -1.29873,2.89492 -2.89492,2.89492 -1.59619,0 -2.89492,-1.29873 -2.89492,-2.89492 4.34444e-005,-1.59632 1.29877,-2.89509 2.89492,-2.89509z"/>
 </g>
</svg>
